<?xml version="1.0" encoding="UTF-8"?>
<!DOCTYPE svg PUBLIC "-//W3C//DTD SVG 1.1//EN" "http://www.w3.org/Graphics/SVG/1.1/DTD/svg11.dtd">
<!-- Creator: CorelDRAW -->
<svg xmlns="http://www.w3.org/2000/svg" xml:space="preserve" width="2048px" height="2048px" style="shape-rendering:geometricPrecision; text-rendering:geometricPrecision; image-rendering:optimizeQuality; fill-rule:evenodd; clip-rule:evenodd"
viewBox="0 0 2048 2048"
 xmlns:xlink="http://www.w3.org/1999/xlink">
 <defs>
  <style type="text/css">
   <![CDATA[
    .fil8 {fill:none}
    .fil7 {fill:#6C828C}
    .fil4 {fill:#78909C}
    .fil6 {fill:#82949D}
    .fil5 {fill:#90A4AE}
    .fil0 {fill:#FFA726}
    .fil1 {fill:#FFF3E0}
    .fil3 {fill:#EC407A;fill-rule:nonzero}
    .fil2 {fill:#F06292;fill-rule:nonzero}
   ]]>
  </style>
 </defs>
 <g id="Layer_x0020_1">
  <metadata id="CorelCorpID_0Corel-Layer"/>
  <g id="_366655616">
   <path id="_366656216" class="fil0" d="M255.999 539.826l1536 0 0 174.349 0 793.999 -1536 0 0 -793.999 0 -174.349zm1469.22 174.349l-1402.44 0 0 727.217 1402.44 0 0 -727.217z"/>
   <polygon id="_366656168" class="fil1" points="322.781,714.174 322.781,1441.39 1725.22,1441.39 1725.22,714.174 "/>
   <path id="_366656264" class="fil2" d="M1318.75 1160.92c-17.9563,67.0182 -57.339,123.855 -109.597,163.955 -52.226,40.0737 -117.28,63.3886 -186.623,63.3886 -84.6898,0 -161.365,-34.3299 -216.866,-89.8312 -55.5012,-55.5012 -89.8312,-132.176 -89.8312,-216.866l50.087 0c0,70.8627 28.7221,135.017 75.1583,181.452 46.4351,46.4351 110.589,75.1583 181.452,75.1583 58.1351,0 112.616,-19.5 156.297,-53.0185 43.6477,-33.4914 76.5615,-81.0367 91.5957,-137.151l48.3272 12.913z"/>
   <polygon id="_366656624" class="fil3" points="664.661,1121.95 715.18,1060.47 736.295,1034.78 762.006,1055.91 823.484,1106.43 "/>
   <path id="_366656552" class="fil2" d="M729.254 994.644c17.9563,-67.017 57.339,-123.854 109.597,-163.955 52.226,-40.0725 117.28,-63.3875 186.623,-63.3875 84.6898,0 161.365,34.3288 216.865,89.8312 55.5012,55.5012 89.8312,132.176 89.8312,216.866l-50.087 0c0,-70.8627 -28.7221,-135.017 -75.1583,-181.453 -46.4339,-46.4351 -110.588,-75.1571 -181.451,-75.1571 -58.1351,0 -112.616,19.5 -156.297,53.0174 -43.6477,33.4925 -76.5615,81.0367 -91.5957,137.152l-48.3272 -12.9142z"/>
   <polygon id="_366656384" class="fil3" points="1383.34,1033.61 1332.82,1095.09 1311.71,1120.78 1285.99,1099.65 1224.52,1049.14 "/>
   <g>
    <path id="_366656528" class="fil4" d="M1001.75 877.921l44.4969 0 9.66142 67.6264c25.8756,6.22205 48.8693,19.8414 66.6225,38.4957l63.4276 -25.461 22.2496 38.537 -53.7319 42.176c3.59528,12.2032 5.53111,25.1173 5.53111,38.4863 0,13.3677 -1.93819,26.2819 -5.53229,38.4851l53.7331 42.1772 -22.2484 38.5359 -63.4205 -25.4563c-17.7543,18.6579 -40.754,32.2796 -66.6331,38.5016l-9.65788 67.6182 -44.4981 0 -9.66142 -67.6264c-25.8756,-6.22205 -48.8693,-19.8425 -66.6225,-38.4957l-63.4276 25.4599 -22.2496 -38.537 53.7307 -42.176c-3.5941,-12.2032 -5.52993,-25.1173 -5.52993,-38.4863 0,-13.3689 1.93465,-26.2831 5.52993,-38.4863l-53.7307 -42.1748 22.2484 -38.537 63.4288 25.4599c17.7543,-18.6532 40.7469,-32.2736 66.6225,-38.4957l9.66142 -67.6264zm-33.3118 199.86c0,30.6862 24.8752,55.5615 55.5615,55.5615 30.6839,0 55.5603,-24.8752 55.5603,-55.5615 0,-30.6851 -24.8764,-55.5615 -55.5603,-55.5615 -30.6862,0 -55.5615,24.8764 -55.5615,55.5615z"/>
    <path id="_366655472" class="fil5" d="M1008.97 886.248l-9.44056 66.0745 -5.49685 1.32165c-23.8996,5.74607 -45.5977,18.3437 -62.5371,36.1394l-3.89292 4.09134 -61.9666 -24.874 -15.026 26.028 52.4906 41.2028 -1.59567 5.41654c-3.45827,11.7366 -5.18977,23.8996 -5.18977,36.1335 0,12.235 1.73268,24.3969 5.18977,36.1335l1.59567 5.41654 -52.4906 41.204 15.026 26.0268 61.9666 -24.8729 3.8941 4.09016c16.937,17.798 38.6374,30.3933 62.5359,36.1406l5.49804 1.32165 9.43938 66.0733 30.052 0 9.4382 -66.065 5.49685 -1.32284c23.9032,-5.74725 45.6083,-18.3437 62.5477,-36.1441l3.89292 -4.09016 61.9583 24.8693 15.026 -26.0268 -52.493 -41.2051 1.59567 -5.41654c3.45709,-11.7366 5.19213,-23.8973 5.19213,-36.1323 0,-12.2339 -1.73386,-24.3969 -5.19095,-36.1335l-1.59567 -5.41654 52.4918 -41.2028 -15.026 -26.028 -61.9666 24.874 -3.8941 -4.09134c-16.9382,-17.7969 -38.6374,-30.3933 -62.5359,-36.1406l-5.49804 -1.32165 -9.43938 -66.0733 -30.052 0zm-40.5343 191.534c0,30.6862 24.8752,55.5615 55.5615,55.5615 30.6839,0 55.5603,-24.8752 55.5603,-55.5615 0,-30.6851 -24.8764,-55.5615 -55.5603,-55.5615 -30.6862,0 -55.5615,24.8764 -55.5615,55.5615z"/>
    <path id="_366655352" class="fil6" d="M901.509 1041.65c-3.45827,11.7366 -5.18977,23.8996 -5.18977,36.1335 0,12.235 1.73268,24.3969 5.18977,36.1335l1.59567 5.41654 -52.4906 41.204 15.026 26.0268 61.9666 -24.8729 3.8941 4.09016c16.937,17.798 38.6374,30.3933 62.5359,36.1406l5.49804 1.32165 9.43938 66.0733 15.026 0 0 -135.972c-30.6862,-0.0011811 -55.5603,-24.8752 -55.5603,-55.5615 0,-30.6851 24.874,-55.5603 55.5603,-55.5615l0 -135.972 -15.026 0 -9.44056 66.0745 -5.49685 1.32165c-23.8996,5.74607 -45.5977,18.3437 -62.5371,36.1394l-3.89292 4.09134 -61.9666 -24.874 -15.026 26.028 52.4906 41.2028 -1.59567 5.41654z"/>
    <path id="_366655760" class="fil7" d="M992.09 945.548c-25.8756,6.22205 -48.8681,19.8425 -66.6225,38.4945l-63.4276 -25.4587 -22.2496 38.537 53.7307 42.1748c-3.59528,12.2032 -5.52993,25.1173 -5.52993,38.4863 0,13.3689 1.93583,26.2831 5.52993,38.4874l-53.7307 42.1748 22.2496 38.537 63.4276 -25.4599c17.752,18.6532 40.7469,32.2736 66.6225,38.4957l9.66142 67.6264 22.2484 0 0 -8.32796 -15.026 0 -9.43938 -66.0733 -5.49804 -1.32165c-23.8996,-5.74725 -45.5989,-18.3437 -62.5359,-36.1406l-3.8941 -4.09016 -61.9666 24.8729 -15.026 -26.0268 52.4906 -41.2028 -1.59567 -5.41772c-3.45709,-11.7366 -5.18977,-23.8984 -5.18977,-36.1335 0,-12.2339 1.7315,-24.3969 5.18977,-36.1335l1.59567 -5.41654 -52.4906 -41.2028 15.026 -26.0268 61.9666 24.8717 3.89292 -4.09016c16.9394,-17.7957 38.6363,-30.3921 62.5371,-36.1394l5.49685 -1.32165 9.44056 -66.0745 15.026 0 0 -8.32678 -22.2496 0 -9.66024 67.6264z"/>
   </g>
  </g>
 </g>
 <rect class="fil8" width="2048" height="2048"/>
</svg>
