<svg aria-hidden="true" style="position: absolute; width: 0; height: 0; overflow: hidden;" version="1.1" xmlns="http://www.w3.org/2000/svg" xmlns:xlink="http://www.w3.org/1999/xlink">
<defs>
<symbol id="icon-reshot-icon-engineering-VTJ4U83G7W" viewBox="0 0 32 32">
<path fill="#c4a2fc" style="fill: var(--color1, #c4a2fc)" d="M19.75 27.31v4.19h3v-4.19l-1.5-0.75-1.5 0.75z"></path>
<path fill="#c4a2fc" style="fill: var(--color1, #c4a2fc)" d="M30.245 14.33l-3.81-3.39c-0.9-0.795-2.185-0.455-2.185 0.585v6.975c0 0.001 0 0.002 0 0.003 0 0.167-0.082 0.316-0.209 0.406l-0.002 0.001-2.5 1.785c-0.081 0.058-0.181 0.093-0.29 0.093s-0.209-0.035-0.291-0.094l0.002 0.001-2.5-1.785c-0.128-0.092-0.21-0.24-0.21-0.407 0-0.001 0-0.002 0-0.003v0-6.975c0-1.035-1.285-1.385-2.185-0.585l-3.81 3.39c-0.307 0.276-0.5 0.674-0.5 1.118 0 0.001 0 0.001 0 0.002v-0 6.135c0 0.414 0.168 0.789 0.44 1.060l3.415 3.415c0.088 0.092 0.143 0.217 0.145 0.355v4.585c0 0.276 0.224 0.5 0.5 0.5v0h2.5v-4.5c0.001-0.194 0.111-0.361 0.272-0.444l0.003-0.001 2-1c0.066-0.034 0.143-0.053 0.225-0.053s0.16 0.020 0.228 0.055l-0.003-0.001 2 1c0.164 0.084 0.274 0.252 0.275 0.445v4.5h2.5c0.276 0 0.5-0.224 0.5-0.5v0-4.585c0.002-0.138 0.057-0.263 0.145-0.355l-0 0 3.415-3.415c0.272-0.271 0.44-0.646 0.44-1.060v-6.135c-0.002-0.446-0.198-0.845-0.508-1.119l-0.002-0.001z"></path>
<path fill="#151a6a" style="fill: var(--color2, #151a6a)" d="M21.235 10.585c-0.195-3.92-2.862-7.168-6.466-8.229l-0.064-0.016v-0.26c0.001-0.024 0.002-0.052 0.002-0.080 0-0.828-0.672-1.5-1.5-1.5-0.002 0-0.005 0-0.008 0h-2.9c-0.001 0-0.001 0-0.002 0-0.828 0-1.5 0.672-1.5 1.5 0 0.026 0.001 0.053 0.002 0.079l-0-0.004v0.26c-3.671 1.075-6.342 4.326-6.534 8.229l-0.001 0.021c-0.594 0.207-1.013 0.762-1.015 1.415v1c0.003 0.549 0.301 1.027 0.743 1.286l0.007 0.004v1.46c0 0 0 0.001 0 0.001 0 0.266 0.207 0.483 0.469 0.499l0.001 0 1.635 0.090c0.21 0.686 0.482 1.283 0.82 1.834l-0.020-0.034-1.13 1.255c-0.086 0.090-0.138 0.211-0.138 0.345s0.053 0.255 0.138 0.345l2.12 2.12c0.090 0.085 0.211 0.138 0.345 0.138s0.255-0.053 0.345-0.138l-0 0 1.335-1.2c0.491 0.273 1.060 0.51 1.657 0.681l0.058 0.014 0.095 1.805c0 0.276 0.224 0.5 0.5 0.5v0h3c0.276 0 0.5-0.224 0.5-0.5v0l0.095-1.805c0.656-0.184 1.227-0.421 1.762-0.716l-0.042 0.021 1.33 1.2c0.090 0.085 0.211 0.138 0.345 0.138s0.255-0.053 0.345-0.138l2.12-2.12c0.085-0.090 0.138-0.211 0.138-0.345s-0.053-0.255-0.138-0.345l0 0-1.13-1.255c0.318-0.519 0.59-1.117 0.785-1.749l0.015-0.056 1.63-0.085c0.276 0 0.5-0.224 0.5-0.5v0-1.46c0.455-0.259 0.758-0.738 0.765-1.289v-1.001c-0.002-0.653-0.421-1.208-1.004-1.412l-0.011-0.003zM17.32 4.82l-1 1.39c-0.058 0.081-0.093 0.182-0.093 0.291 0 0.169 0.084 0.318 0.212 0.408l0.002 0.001c0.081 0.058 0.182 0.093 0.291 0.093 0.169 0 0.318-0.084 0.408-0.212l0.001-0.002 0.92-1.29c1.244 1.312 2.049 3.052 2.174 4.976l0.001 0.024h-5.96l0.355-7.135c1.034 0.33 1.93 0.826 2.703 1.466l-0.013-0.011zM10.3 1.5h2.9c0.276 0 0.5 0.224 0.5 0.5v0l-0.425 8.5h-3.050l-0.425-8.475c-0-0.007-0.001-0.016-0.001-0.025 0-0.276 0.224-0.5 0.5-0.5 0 0 0 0 0.001 0h-0zM5.44 5.5l0.9 1.28c0.092 0.129 0.241 0.212 0.41 0.212 0.277 0 0.502-0.225 0.502-0.502 0-0.109-0.035-0.209-0.093-0.292l0.001 0.002-1-1.39c0.76-0.629 1.656-1.125 2.633-1.439l0.057-0.016 0.375 7.145h-5.96c0.126-1.948 0.931-3.688 2.178-5.004l-0.003 0.004zM2.25 12c0-0.276 0.224-0.5 0.5-0.5v0h18c0.276 0 0.5 0.224 0.5 0.5v0 1c0 0.276-0.224 0.5-0.5 0.5v0h-18c-0.276 0-0.5-0.224-0.5-0.5v0zM14.705 14.5c-0.255 1.419-1.481 2.482-2.955 2.482s-2.7-1.063-2.952-2.464l-0.003-0.018zM19 15.355c-0.222 0.011-0.405 0.165-0.459 0.371l-0.001 0.004c-0.214 0.83-0.547 1.559-0.986 2.21l0.016-0.025c-0.055 0.079-0.087 0.177-0.087 0.282 0 0.128 0.048 0.245 0.128 0.334l-0-0 1.065 1.18-1.45 1.455-1.245-1.125c-0.088-0.078-0.204-0.125-0.331-0.125-0.104 0-0.201 0.032-0.281 0.086l0.002-0.001c-0.608 0.378-1.315 0.673-2.068 0.846l-0.047 0.009c-0.216 0.050-0.377 0.234-0.39 0.459l-0 0.001-0.090 1.685h-2.050l-0.090-1.705c-0.013-0.226-0.174-0.41-0.387-0.459l-0.003-0.001c-0.797-0.177-1.503-0.465-2.141-0.853l0.031 0.018c-0.073-0.045-0.162-0.071-0.258-0.071-0.128 0-0.244 0.048-0.333 0.127l0-0-1.255 1.125-1.455-1.47 1.065-1.21c0.078-0.088 0.125-0.204 0.125-0.331 0-0.104-0.032-0.201-0.086-0.281l0.001 0.002c-0.41-0.618-0.733-1.337-0.929-2.106l-0.011-0.049c-0.057-0.217-0.252-0.375-0.484-0.375-0.006 0-0.011 0-0.017 0l0.001-0-1.5-0.085v-0.775h4.785c0.27 1.97 1.942 3.472 3.965 3.472s3.695-1.502 3.963-3.451l0.002-0.021h4.785v0.775z"></path>
<path fill="#151a6a" style="fill: var(--color2, #151a6a)" d="M11.75 4.5c0.276 0 0.5-0.224 0.5-0.5v0-1c0-0.276-0.224-0.5-0.5-0.5s-0.5 0.224-0.5 0.5v0 1c0 0.276 0.224 0.5 0.5 0.5v0z"></path>
</symbol>
<symbol id="icon-reshot-icon-mobile-engineering-UA6BVTQ4N2" viewBox="0 0 32 32">
<path fill="#f0c48a" style="fill: var(--color3, #f0c48a)" d="M28.938 16c0 7.145-5.792 12.938-12.938 12.938s-12.938-5.792-12.938-12.938c0-7.145 5.792-12.938 12.938-12.938s12.938 5.792 12.938 12.938z"></path>
<path fill="#d3e6f8" style="fill: var(--color4, #d3e6f8)" d="M8.045 5.863v-3.254c0-1.233 1.009-2.243 2.243-2.243h11.393c1.233 0 2.243 1.009 2.243 2.243v26.782c0 1.233-1.009 2.243-2.243 2.243h-11.393c-1.233 0-2.243-1.009-2.243-2.243v-23.528z"></path>
<path fill="#7babf1" style="fill: var(--color5, #7babf1)" d="M22.335 26.748v4.787c0.917-0.282 1.588-1.138 1.588-2.144v-2.643h-1.588z"></path>
<path fill="#7babf1" style="fill: var(--color5, #7babf1)" d="M22.335 0.465v4.299h1.588v-2.154c0-1.006-0.671-1.862-1.588-2.144z"></path>
<path fill="#fff" style="fill: var(--color6, #fff)" d="M8.045 4.763h15.939v21.985h-15.939v-21.985z"></path>
<path fill="#d3e6f8" style="fill: var(--color4, #d3e6f8)" d="M22.335 4.763h1.649v21.985h-1.649v-21.985z"></path>
<path fill="#7babf1" style="fill: var(--color5, #7babf1)" d="M17.358 29.221c0 0.759-0.615 1.374-1.374 1.374s-1.374-0.615-1.374-1.374c0-0.759 0.615-1.374 1.374-1.374s1.374 0.615 1.374 1.374z"></path>
<path fill="#fd919e" style="fill: var(--color7, #fd919e)" d="M21.175 16.752v-1.505h-1.328c-0.102-0.527-0.309-1.018-0.599-1.447l0.939-0.939-1.064-1.064-0.939 0.939c-0.43-0.29-0.92-0.497-1.447-0.599v-1.329h-1.505v1.329c-0.527 0.102-1.018 0.309-1.447 0.599l-0.939-0.939-1.064 1.064 0.939 0.939c-0.29 0.43-0.497 0.92-0.599 1.447h-1.329v1.505h1.329c0.102 0.527 0.309 1.018 0.599 1.447l-0.939 0.939 1.064 1.064 0.939-0.939c0.43 0.29 0.92 0.497 1.447 0.599v1.328h1.505v-1.328c0.527-0.102 1.018-0.309 1.447-0.599l0.939 0.939 1.064-1.064-0.939-0.939c0.29-0.43 0.497-0.92 0.599-1.447h1.329zM15.959 17.926c-1.063 0-1.926-0.862-1.926-1.926s0.862-1.926 1.926-1.926c1.064 0 1.926 0.862 1.926 1.926s-0.862 1.926-1.926 1.926z"></path>
<path fill="#4c4372" style="fill: var(--color8, #4c4372)" d="M15.959 18.292c-1.264 0-2.292-1.028-2.292-2.292s1.028-2.292 2.292-2.292c1.264 0 2.292 1.028 2.292 2.292s-1.028 2.292-2.292 2.292zM15.959 14.441c-0.86 0-1.559 0.699-1.559 1.559s0.699 1.559 1.559 1.559 1.559-0.7 1.559-1.559c0-0.86-0.7-1.559-1.559-1.559z"></path>
<path fill="#4c4372" style="fill: var(--color8, #4c4372)" d="M16.737 21.557h-1.505c-0.202 0-0.366-0.164-0.366-0.366v-1.037c-0.361-0.097-0.705-0.239-1.028-0.425l-0.733 0.733c-0.069 0.069-0.162 0.107-0.259 0.107s-0.19-0.039-0.259-0.107l-1.064-1.064c-0.143-0.143-0.143-0.375 0-0.518l0.733-0.733c-0.187-0.323-0.329-0.667-0.425-1.028h-1.037c-0.202 0-0.366-0.164-0.366-0.366v-1.505c0-0.202 0.164-0.366 0.366-0.366h1.037c0.097-0.361 0.239-0.705 0.425-1.028l-0.733-0.733c-0.143-0.143-0.143-0.375 0-0.518l1.064-1.064c0.143-0.143 0.375-0.143 0.518 0l0.733 0.733c0.323-0.186 0.667-0.329 1.028-0.425v-1.037c0-0.202 0.164-0.366 0.366-0.366h1.505c0.202 0 0.366 0.164 0.366 0.366v1.037c0.361 0.097 0.705 0.239 1.028 0.425l0.733-0.733c0.143-0.143 0.375-0.143 0.518 0l1.064 1.064c0.143 0.143 0.143 0.375 0 0.518l-0.733 0.733c0.186 0.323 0.329 0.667 0.425 1.028h1.037c0.202 0 0.366 0.164 0.366 0.366v1.505c0 0.202-0.164 0.366-0.366 0.366h-1.037c-0.097 0.361-0.239 0.705-0.425 1.028l0.733 0.733c0.143 0.143 0.143 0.375 0 0.518l-1.064 1.064c-0.069 0.069-0.162 0.107-0.259 0.107s-0.19-0.039-0.259-0.107l-0.733-0.733c-0.323 0.186-0.667 0.329-1.028 0.425v1.037c0 0.203-0.164 0.367-0.366 0.367zM15.598 20.824h0.772v-0.962c0-0.175 0.124-0.326 0.297-0.36 0.473-0.092 0.914-0.274 1.312-0.543 0.145-0.098 0.34-0.079 0.464 0.045l0.68 0.68 0.546-0.546-0.68-0.68c-0.124-0.124-0.143-0.319-0.045-0.464 0.269-0.398 0.451-0.839 0.543-1.312 0.033-0.172 0.184-0.297 0.36-0.297h0.962v-0.772h-0.962c-0.175 0-0.326-0.124-0.36-0.297-0.092-0.473-0.274-0.914-0.543-1.312-0.098-0.145-0.079-0.34 0.045-0.464l0.68-0.68-0.546-0.546-0.68 0.68c-0.124 0.124-0.319 0.143-0.464 0.045-0.398-0.269-0.839-0.451-1.312-0.543-0.172-0.033-0.297-0.184-0.297-0.36v-0.962h-0.772v0.962c0 0.175-0.124 0.326-0.297 0.36-0.473 0.092-0.914 0.274-1.312 0.543-0.146 0.098-0.34 0.079-0.464-0.045l-0.68-0.68-0.546 0.546 0.68 0.68c0.124 0.124 0.143 0.319 0.045 0.464-0.269 0.398-0.451 0.839-0.543 1.312-0.033 0.172-0.184 0.297-0.36 0.297h-0.962v0.772h0.962c0.175 0 0.326 0.124 0.36 0.297 0.091 0.472 0.274 0.914 0.543 1.312 0.098 0.145 0.079 0.34-0.045 0.464l-0.68 0.68 0.546 0.546 0.68-0.68c0.124-0.124 0.319-0.143 0.464-0.045 0.398 0.269 0.839 0.451 1.312 0.543 0.172 0.033 0.297 0.184 0.297 0.36v0.962z"></path>
<path fill="#4c4372" style="fill: var(--color8, #4c4372)" d="M23.954 5.13h-15.939c-0.202 0-0.241-0.164-0.241-0.366s0.039-0.366 0.241-0.366h15.939c0.202 0 0.171 0.151 0.171 0.353s0.031 0.38-0.171 0.38z"></path>
<path fill="#4c4372" style="fill: var(--color8, #4c4372)" d="M23.954 27.114h-15.939c-0.202 0-0.202-0.1-0.202-0.302s0-0.431 0.202-0.431h15.939c0.202 0 0.241 0.164 0.241 0.366s-0.039 0.366-0.241 0.366z"></path>
<path fill="#4c4372" style="fill: var(--color8, #4c4372)" d="M15.984 30.962c-0.96 0-1.74-0.781-1.74-1.74s0.781-1.74 1.74-1.74 1.74 0.781 1.74 1.74c0 0.96-0.781 1.74-1.74 1.74zM15.984 28.214c-0.556 0-1.008 0.452-1.008 1.008s0.452 1.008 1.008 1.008 1.008-0.452 1.008-1.008-0.452-1.008-1.008-1.008z"></path>
<path fill="#4c4372" style="fill: var(--color8, #4c4372)" d="M21.681 32h-11.393c-1.439 0-2.609-1.17-2.609-2.609v-26.782c0-1.439 1.17-2.609 2.609-2.609h11.393c1.439 0 2.609 1.17 2.609 2.609v26.782c0 1.439-1.17 2.609-2.609 2.609zM10.288 0.733c-1.034 0-1.876 0.842-1.876 1.876v26.782c0 1.035 0.842 1.876 1.876 1.876h11.393c1.035 0 1.876-0.842 1.876-1.876v-26.782c0-1.034-0.842-1.876-1.876-1.876h-11.393z"></path>
</symbol>
<symbol id="icon-reshot-icon-reverse-engineering-DTCEJFN9S4" viewBox="0 0 32 32">
<path fill="#ffa726" style="fill: var(--color9, #ffa726)" d="M4 8.435h24v15.13h-24v-15.13zM26.957 11.159h-21.913v11.363h21.913v-11.363z"></path>
<path fill="#fff3e0" style="fill: var(--color10, #fff3e0)" d="M5.043 11.159v11.363h21.913v-11.363z"></path>
<path fill="#f06292" style="fill: var(--color11, #f06292)" d="M20.605 18.139c-0.281 1.047-0.896 1.935-1.712 2.562s-1.832 0.99-2.916 0.99c-1.323 0-2.521-0.536-3.389-1.404s-1.404-2.065-1.404-3.389h0.783c0 1.107 0.449 2.11 1.174 2.835s1.728 1.174 2.835 1.174c0.908 0 1.76-0.305 2.442-0.828s1.196-1.266 1.431-2.143l0.755 0.202z"></path>
<path fill="#ec407a" style="fill: var(--color12, #ec407a)" d="M10.385 17.53l1.119-1.362 1.362 1.12z"></path>
<path fill="#f06292" style="fill: var(--color11, #f06292)" d="M11.395 15.541c0.281-1.047 0.896-1.935 1.712-2.562s1.832-0.99 2.916-0.99c1.323 0 2.521 0.536 3.389 1.404s1.404 2.065 1.404 3.389h-0.783c0-1.107-0.449-2.11-1.174-2.835s-1.728-1.174-2.835-1.174c-0.908 0-1.76 0.305-2.442 0.828s-1.196 1.266-1.431 2.143l-0.755-0.202z"></path>
<path fill="#ec407a" style="fill: var(--color12, #ec407a)" d="M21.615 16.15l-1.119 1.362-1.362-1.119z"></path>
<path fill="#78909c" style="fill: var(--color13, #78909c)" d="M15.652 13.718h0.695l0.151 1.057c0.404 0.097 0.764 0.31 1.041 0.601l0.991-0.398 0.348 0.602-0.84 0.659c0.056 0.191 0.086 0.392 0.086 0.601s-0.030 0.411-0.086 0.601l0.84 0.659-0.348 0.602-0.991-0.398c-0.277 0.292-0.637 0.504-1.041 0.602l-0.151 1.057h-0.695l-0.151-1.057c-0.404-0.097-0.764-0.31-1.041-0.602l-0.991 0.398-0.348-0.602 0.84-0.659c-0.056-0.191-0.086-0.392-0.086-0.601s0.030-0.411 0.086-0.601l-0.84-0.659 0.348-0.602 0.991 0.398c0.277-0.291 0.637-0.504 1.041-0.601l0.151-1.057zM15.132 16.84c0 0.479 0.389 0.868 0.868 0.868s0.868-0.389 0.868-0.868-0.389-0.868-0.868-0.868c-0.479 0-0.868 0.389-0.868 0.868z"></path>
<path fill="#90a4ae" style="fill: var(--color14, #90a4ae)" d="M15.765 13.848h0.47l0.148 1.032 0.086 0.021c0.373 0.090 0.712 0.287 0.977 0.565l0.061 0.064 0.968-0.389 0.235 0.407-0.82 0.644 0.025 0.085c0.054 0.183 0.081 0.373 0.081 0.565s-0.027 0.381-0.081 0.565l-0.025 0.085 0.82 0.644-0.235 0.407-0.968-0.389-0.061 0.064c-0.265 0.278-0.604 0.475-0.977 0.565l-0.086 0.021-0.147 1.032h-0.47l-0.148-1.032-0.086-0.021c-0.373-0.090-0.712-0.287-0.977-0.565l-0.061-0.064-0.968 0.389-0.235-0.407 0.82-0.644-0.025-0.085c-0.054-0.183-0.081-0.373-0.081-0.565s0.027-0.381 0.081-0.565l0.025-0.085-0.82-0.644 0.235-0.407 0.968 0.389 0.061-0.064c0.265-0.278 0.604-0.475 0.977-0.565l0.086-0.021 0.148-1.032zM15.132 16.84c0 0.479 0.389 0.868 0.868 0.868s0.868-0.389 0.868-0.868-0.389-0.868-0.868-0.868c-0.479 0-0.868 0.389-0.868 0.868z"></path>
<path fill="#82949d" style="fill: var(--color15, #82949d)" d="M14.086 16.276c-0.054 0.183-0.081 0.373-0.081 0.565s0.027 0.381 0.081 0.565l0.025 0.085-0.82 0.644 0.235 0.407 0.968-0.389 0.061 0.064c0.265 0.278 0.604 0.475 0.977 0.565l0.086 0.021 0.148 1.032h0.235v-2.125c-0.479-0-0.868-0.389-0.868-0.868s0.389-0.868 0.868-0.868v-2.125h-0.235l-0.148 1.032-0.086 0.021c-0.373 0.090-0.712 0.287-0.977 0.565l-0.061 0.064-0.968-0.389-0.235 0.407 0.82 0.644-0.025 0.085z"></path>
<path fill="#6c828c" style="fill: var(--color16, #6c828c)" d="M15.501 14.774c-0.404 0.097-0.764 0.31-1.041 0.601l-0.991-0.398-0.348 0.602 0.84 0.659c-0.056 0.191-0.086 0.392-0.086 0.601s0.030 0.411 0.086 0.601l-0.84 0.659 0.348 0.602 0.991-0.398c0.277 0.291 0.637 0.504 1.041 0.602l0.151 1.057h0.348v-0.13h-0.235l-0.148-1.032-0.086-0.021c-0.373-0.090-0.712-0.287-0.977-0.565l-0.061-0.064-0.968 0.389-0.235-0.407 0.82-0.644-0.025-0.085c-0.054-0.183-0.081-0.373-0.081-0.565s0.027-0.381 0.081-0.565l0.025-0.085-0.82-0.644 0.235-0.407 0.968 0.389 0.061-0.064c0.265-0.278 0.604-0.475 0.977-0.565l0.086-0.021 0.148-1.032h0.235v-0.13h-0.348l-0.151 1.057z"></path>
</symbol>
<symbol id="icon-Ellipse1" viewBox="0 0 32 32">
<path fill="#e7e9fc" style="fill: var(--color17, #e7e9fc)" opacity="0.1" stroke-linejoin="miter" stroke-linecap="butt" stroke-miterlimit="4" stroke-width="1.3333" stroke="#000" d="M31.333 16c0 8.468-6.865 15.333-15.333 15.333s-15.333-6.865-15.333-15.333c0-8.468 6.865-15.333 15.333-15.333s15.333 6.865 15.333 15.333z"></path>
</symbol>
</defs>
</svg>
